<svg width="260" height="28" viewBox="0 0 260 28" fill="none" xmlns="http://www.w3.org/2000/svg">
<path d="M30.3562 19.2462L30.8584 17.446C30.9202 17.2142 31.1366 17.0519 31.3761 17.0519H36.9544L33.2767 3.94829H32.8286L27.2503 23.851C27.1499 24.2296 26.9722 24.4768 26.6245 24.4768H24.268C23.9589 24.4768 23.7503 24.2373 23.8508 23.851L30.3717 0.749646C30.4721 0.401967 30.6807 0.193359 30.9975 0.193359H35.1233C35.4323 0.193359 35.641 0.401967 35.7491 0.749646L42.27 23.8355C42.3705 24.2141 42.2005 24.4613 41.8528 24.4613H39.4963C39.1486 24.4613 38.9787 24.2218 38.8705 23.8355L37.7579 19.9183H30.8816C30.5262 19.9183 30.2712 19.5784 30.364 19.2384L30.3562 19.2462Z" fill="#003465"/>
<path d="M52.6927 17.7009V23.9746C52.6927 24.245 52.4763 24.4613 52.2059 24.4613H49.8494C49.579 24.4613 49.3627 24.245 49.3627 23.9746V0.68011C49.3627 0.409693 49.579 0.193359 49.8494 0.193359H58.6573C63.687 0.193359 65.7963 2.65802 65.7963 7.16239V10.7319C65.7963 13.7837 64.8228 15.9007 62.644 16.936L65.6959 23.7274C65.9045 24.1755 65.6959 24.4536 65.2091 24.4536H63.0612C62.7522 24.4536 62.474 24.3145 62.335 24.0055L59.5303 17.6623C59.2522 17.6932 58.9432 17.6932 58.665 17.6932H55.0182C54.7401 17.6932 54.5238 17.4691 54.5238 17.1987V15.1745C54.5238 14.8963 54.7478 14.68 55.0182 14.68H58.4873C61.1606 14.68 62.474 13.606 62.474 10.6546V7.2551C62.474 4.31142 61.1606 3.19885 58.4873 3.19885H52.7004V14.6723" fill="#003465"/>
<path d="M73.4916 17.6005V7.06197C73.4916 2.58851 75.709 0.023407 80.7001 0.023407H83.5434C88.5731 0.023407 90.6824 2.48806 90.6824 6.95381V7.12378C90.6824 7.40193 90.5124 7.5719 90.2342 7.5719H87.8082C87.5301 7.5719 87.3601 7.40193 87.3601 7.12378C87.3601 4.07194 85.9076 3.03662 83.3038 3.03662H80.8778C78.2046 3.03662 76.8216 4.21873 76.8216 7.16242V17.4923C76.8216 20.4747 78.2046 21.6181 80.8778 21.6181H83.3038C85.9771 21.6181 87.3601 20.4747 87.3601 17.4923V13.7451H82.539C82.1913 13.7451 82.0213 13.6061 82.0213 13.2584V11.3191C82.0213 10.9714 82.1913 10.8324 82.539 10.8324H90.0643C90.4429 10.8324 90.6901 11.041 90.6901 11.4582V17.5928C90.6901 22.0663 88.4727 24.6313 83.4816 24.6313H80.7078C75.7167 24.6313 73.4993 22.0663 73.4993 17.5928L73.4916 17.6005Z" fill="#003465"/>
<path d="M10.2295 0.023407H7.21627C2.21742 0.023407 0 2.58851 0 7.06197V17.6005C0 21.2318 1.46798 23.6115 4.69753 24.3687C5.08384 24.4614 5.4547 24.1523 5.4547 23.7583V21.7495C5.4547 21.51 5.31562 21.2936 5.10702 21.1932C3.92491 20.6292 3.33772 19.4625 3.33772 17.4923V7.16241C3.33772 4.21873 4.6898 3.03662 7.39397 3.03662H10.0672C12.7405 3.03662 14.1235 4.21873 14.1235 7.16241V17.4923C14.1235 19.4548 13.5208 20.6137 12.3465 21.1855C12.1301 21.2859 11.9988 21.5022 11.9988 21.7417V23.7583C11.9988 24.1523 12.3696 24.4614 12.756 24.3687C15.9855 23.6038 17.4535 21.2318 17.4535 17.6005V7.06197C17.438 2.58851 15.2206 0.023407 10.2295 0.023407Z" fill="#003465"/>
<path d="M9.65776 28H7.74938C7.40171 28 7.26263 27.83 7.26263 27.5132V18.6358C7.26263 18.3268 7.40171 18.1491 7.74938 18.1491H9.65776C10.0054 18.1491 10.1754 18.3191 10.1754 18.6358V27.5132C10.1754 27.8223 10.0054 28 9.65776 28Z" fill="#003465"/>
<path d="M108.422 0.417396V2.64254C108.422 2.85887 108.599 3.03658 108.816 3.0443C111.304 3.11384 112.926 3.95599 112.903 7.16237V17.4923C112.996 21.0463 110.601 21.6722 108.824 21.6335C108.599 21.6335 108.414 21.8112 108.414 22.0353V24.2373C108.414 24.4536 108.592 24.639 108.808 24.639C112.64 24.6777 116.225 23.3333 116.225 17.5927V7.0542C116.38 1.77721 113.158 0.000180824 108.816 0.0156332C108.599 0.0156332 108.422 0.201062 108.422 0.417396Z" fill="#003465"/>
<path d="M106.614 0.417426V2.64257C106.614 2.8589 106.436 3.03661 106.22 3.04433C103.732 3.11387 102.109 3.95602 102.133 7.1624V17.4923C102.04 21.0464 104.435 21.6722 106.212 21.6336C106.436 21.6336 106.622 21.8113 106.622 22.0353V24.2373C106.622 24.4536 106.444 24.6391 106.228 24.6391C102.395 24.6777 98.8104 23.3333 98.8104 17.5928V7.05423C98.6559 1.77724 101.878 0.000211341 106.22 0.0156637C106.436 0.0156637 106.614 0.201092 106.614 0.417426Z" fill="#003465"/>
<path d="M133.64 17.2528V6.91515C133.64 2.5344 135.819 0.0156555 140.709 0.0156555H143.499C148.428 0.0156555 150.506 2.42623 150.506 6.81471V6.98469C150.506 7.2551 150.336 7.42508 150.066 7.42508H147.686C147.416 7.42508 147.246 7.2551 147.246 6.98469C147.246 3.99465 145.816 2.97479 143.267 2.97479H140.887C138.268 2.97479 136.908 4.13372 136.908 7.02332V17.1524C136.908 20.0729 138.268 21.2009 140.887 21.2009H143.267C145.816 21.2009 147.246 20.2119 147.246 17.3919C147.246 17.1215 147.416 16.9515 147.686 16.9515H150.066C150.336 16.9515 150.506 17.1215 150.506 17.3919V17.5618C150.506 21.7804 148.436 24.16 143.499 24.16H140.709C135.811 24.16 133.64 21.6413 133.64 17.2605V17.2528Z" fill="#003465"/>
<path d="M196.091 0.664693V2.6735C196.091 3.01346 195.952 3.15253 195.612 3.15253H185.143V10.6315H194.801C195.141 10.6315 195.28 10.7706 195.28 11.1105V13.0112C195.28 13.3511 195.141 13.4902 194.801 13.4902H185.143V23.5188C185.143 23.8587 185.004 23.9978 184.664 23.9978H182.354C182.014 23.9978 181.875 23.8587 181.875 23.5188V0.664693C181.875 0.324741 182.014 0.185669 182.354 0.185669H195.612C195.952 0.185669 196.091 0.324741 196.091 0.664693Z" fill="#003465"/>
<path d="M216.99 0.664693V2.6735C216.99 3.01346 216.851 3.15253 216.511 3.15253H206.042V10.6315H215.7C216.04 10.6315 216.179 10.7706 216.179 11.1105V13.0112C216.179 13.3511 216.04 13.4902 215.7 13.4902H206.042V23.5188C206.042 23.8587 205.903 23.9978 205.563 23.9978H203.253C202.913 23.9978 202.774 23.8587 202.774 23.5188V0.664693C202.774 0.324741 202.913 0.185669 203.253 0.185669H216.511C216.851 0.185669 216.99 0.324741 216.99 0.664693Z" fill="#003465"/>
<path d="M223.681 23.5111V0.664693C223.681 0.324741 223.851 0.185669 224.191 0.185669H237.418C237.758 0.185669 237.897 0.324741 237.897 0.664693V2.6735C237.897 3.01346 237.758 3.15253 237.418 3.15253H226.949V10.6315H236.538C236.877 10.6315 237.047 10.7706 237.047 11.1105V13.0112C237.047 13.3511 236.877 13.4902 236.538 13.4902H226.949V21.0387H237.526C237.866 21.0387 238.036 21.1777 238.036 21.5177V23.5265C238.036 23.8665 237.866 24.0055 237.526 24.0055H224.199C223.859 24.0055 223.689 23.8665 223.689 23.5265L223.681 23.5111Z" fill="#003465"/>
<path d="M244.72 23.5111V0.664693C244.72 0.324741 244.89 0.185669 245.23 0.185669H258.457C258.797 0.185669 258.936 0.324741 258.936 0.664693V2.6735C258.936 3.01346 258.797 3.15253 258.457 3.15253H247.988V10.6315H257.576C257.916 10.6315 258.086 10.7706 258.086 11.1105V13.0112C258.086 13.3511 257.916 13.4902 257.576 13.4902H247.988V21.0387H258.565C258.905 21.0387 259.075 21.1777 259.075 21.5177V23.5265C259.075 23.8665 258.905 24.0055 258.565 24.0055H245.237C244.897 24.0055 244.727 23.8665 244.727 23.5265L244.72 23.5111Z" fill="#003465"/>
<path d="M166.94 0.394263V2.57305C166.94 2.78938 167.11 2.95936 167.326 2.96709C169.768 3.03662 171.359 3.86333 171.336 7.00789V17.1369C171.421 20.6214 169.08 21.2318 167.334 21.2009C167.11 21.2009 166.932 21.3709 166.932 21.5949V23.7583C166.932 23.9746 167.102 24.1523 167.318 24.1523C171.081 24.191 174.597 22.8698 174.597 17.2451V6.90745C174.743 1.72317 171.583 -0.0229513 167.326 0.00022727C167.11 0.00022727 166.94 0.17793 166.94 0.394263Z" fill="#003465"/>
<path d="M165.171 0.394263V2.57305C165.171 2.78938 165.001 2.95936 164.784 2.96709C162.343 3.03662 160.751 3.86333 160.774 7.00789V17.1369C160.689 20.6214 163.03 21.2318 164.777 21.2009C165.001 21.2009 165.178 21.3709 165.178 21.5949V23.7583C165.178 23.9746 165.008 24.1523 164.792 24.1523C161.029 24.191 157.514 22.8698 157.514 17.2451V6.90745C157.359 1.72317 160.519 -0.0229513 164.777 0.00022727C164.993 0.00022727 165.163 0.17793 165.163 0.394263H165.171Z" fill="#003465"/>
</svg>
